<?xml version="1.0" encoding="utf-8"?>
<!-- Generator: Adobe Illustrator 15.0.0, SVG Export Plug-In . SVG Version: 6.00 Build 0)  -->
<!DOCTYPE svg PUBLIC "-//W3C//DTD SVG 1.0//EN" "http://www.w3.org/TR/2001/REC-SVG-20010904/DTD/svg10.dtd">
<svg version="1.0" id="Layer_1" xmlns="http://www.w3.org/2000/svg" xmlns:xlink="http://www.w3.org/1999/xlink" x="0px" y="0px"
	 width="330.25px" height="238.75px" viewBox="0 0 330.25 238.75" enable-background="new 0 0 330.25 238.75" xml:space="preserve">
<path fill="#FFFFFF" fill-opacity="0.62" d="M121.344,107.25c3.25,1.5,4.5-3.5,11.75-3.5s10.25,6,15.25,6s9.5-1,13.667-2.333
	c0,0,3,1.667,6.667,1.667c3.666,0,4.666-2.667,10-2.667c5.333,0,9.666,6,13.332,6c3.667,0,3-2.667,7.668-2.667
	c4.666,0,6.332,3.333,9,3.333c2.666,0,6.332-2.333,6.332-5s11.375-2.285,9.332,0.667c-1.322,1.91-3.62,5.684-7.723,9.306
	c2.286,6.49,5.459,15.087,2.391,27.361c-3.332,13.333,9,16.667,4,24.667s-8,3.334-8.666-6s1.327-20.983,2.25-25.334
	c1.336-6.297-4.228-13.066-6.14-16.37c-4.895,2.669-11.345,4.62-19.862,4.62c-15.815,0-22.414-9.459-26.191-15.229
	c-2.572,2.039-8.826,6.229-16.057,6.229C139.344,118,127.344,111.5,121.344,107.25z"/>
<ellipse fill="#FFFFFF" fill-opacity="0.22" cx="180.094" cy="85" rx="17" ry="17.25"/>
<ellipse fill="#FFFFFF" fill-opacity="0.22" cx="132.094" cy="80.75" rx="15.25" ry="14.5"/>
<ellipse fill="#FFFFFF" cx="178.094" cy="78.5" rx="8.5" ry="6"/>
<path fill="#FFFFFF" d="M175.594,88.25c-0.25,2.5-2.5,3.5-6.5,2s-4.25-5.5-1-5.75s0.833,4.083,3.833,2.583
	S175.594,88.25,175.594,88.25z"/>
<path fill="#FFFFFF" d="M179.177,87.833c2.167,0,2.917,2.5,0.083,2.5C176.427,90.333,177.094,87.833,179.177,87.833z"/>
<path fill="#FFFFFF" d="M128.021,83.169c-0.213,2.118-2.118,2.965-5.507,1.694c-3.388-1.271-3.601-4.659-0.847-4.871
	c2.753-0.212,0.705,3.459,3.246,2.188C127.456,80.911,128.021,83.169,128.021,83.169z"/>
<path fill="#FFFFFF" d="M131.057,82.816c1.835,0,2.471,2.118,0.07,2.118S129.291,82.816,131.057,82.816z"/>
<ellipse fill="#FFFFFF" cx="131.344" cy="74.75" rx="7.75" ry="5"/>
<ellipse opacity="0.26" fill="#FFFFFF" cx="256.343" cy="43.417" rx="12.333" ry="12"/>
<ellipse opacity="0.26" fill="#FFFFFF" cx="296.677" cy="63.75" rx="11.333" ry="12.667"/>
<circle opacity="0.26" fill="#FFFFFF" cx="289.01" cy="108.417" r="7.333"/>
<ellipse opacity="0.26" fill="#FFFFFF" cx="276.677" cy="135.75" rx="9" ry="10.667"/>
<ellipse opacity="0.26" fill="#FFFFFF" cx="230.677" cy="160.083" rx="6.333" ry="7.334"/>
<ellipse opacity="0.26" fill="#FFFFFF" cx="106.01" cy="157.417" rx="11" ry="12"/>
<ellipse opacity="0.26" fill="#FFFFFF" cx="100.344" cy="62.083" rx="5.334" ry="6"/>
<ellipse transform="matrix(-0.7812 -0.6243 0.6243 -0.7812 171.8809 129.7427)" opacity="0.26" fill="#FFFFFF" cx="108.677" cy="34.75" rx="9" ry="12"/>
<g>
	<path fill="#F6F6F6" d="M130.553,131.349c9.275,0,17.982-1.825,22.808-4.743l-1.035-1.712c-11.073,6.696-43.452,7.473-53.4-7.449
		c-5.063-7.595-6.098-15.859-2.407-19.224c3.485-3.176,10.475-1.1,18.696,5.556c21.49,17.396,28.012,16.466,43.771,14.212
		l-0.283-1.979c-15.586,2.226-21.418,3.06-42.229-13.788c-3.277-2.653-6.122-4.437-8.577-5.592
		c-1.545-5.807-1.48-14.209-0.348-17.833c0.219-0.701,0.711-1.547,1.355-2.455c0.618-0.72,1.307-1.569,2.059-2.565
		c1.652-1.875,3.538-3.715,4.876-4.95c5.779-4.258,15.121-8.408,20.005-10.079c2.557-0.875,6.417-2.212,10.167-4.021
		c0.331-0.022,0.657-0.025,0.958,0.013c8.658,1.082,16.849,5.653,20.759,11.49c-6.519,7.728-9.885,17.543-9.885,25.768
		c0,17.452,12.179,36,34.75,36c24.527,0,35.1-20.148,37.48-32.054c0.294-1.469,0.245-3.195,0.029-4.926
		c0.191-8.376-2.656-12.351-5.072-15.646C222.281,71.625,207.094,61,201.344,54s-7.5-14.5-9.5-14.5
		c-1.63,0-3.092,6.143,2.239,13.557c-10.594,0.528-18.964,5.201-24.979,11.632c-4.017-5.649-11.677-10.114-19.941-11.628
		c4.254-2.478,7.781-5.63,8.181-9.478c0.833-8-2.167-6.833-3.5,0.333c-0.992,5.334-17.667,9.833-28,15.167
		c-9.097,4.696-17.154,10.942-19.636,17.828c-0.238,0.45-0.442,0.887-0.569,1.291c-1.144,3.661-1.309,11.43-0.022,17.496
		c-5.86-2.044-9.075-0.203-10.446,1.046c-4.487,4.09-3.608,13.263,2.09,21.811C103.397,127.758,117.537,131.349,130.553,131.349z
		 M195.628,55.006c0.922,1.069,1.983,2.155,3.216,3.244c10.75,9.5,19.312,14.5,23.812,20.5c1.994,2.659,3.632,6.103,4.838,9.114
		c0.604,2.542,1.056,5.506,0.619,7.689C225.852,106.862,215.826,126,192.594,126c-21.271,0-32.75-17.518-32.75-34
		C159.844,76.591,172.277,55.288,195.628,55.006z"/>
	<path fill="#F6F6F6" d="M88.978,231.054l59.7,4.76c-0.023,0.138-0.051,0.271-0.072,0.409c-0.133,0.863-0.207,1.925-0.238,3.112
		h1.998c0.03-1.076,0.098-2.034,0.217-2.808c0.721-4.683,2.683-8.723,3.617-10.448c0.215,0.077,0.454,0.127,0.745,0.127c0,0,0,0,0,0
		c0.574,0,1.422-0.173,2.39-0.466c1.739,2.916,4.693,7.965,5.649,13.595h2.033c-0.12-0.764-0.273-1.517-0.454-2.255l28.288,2.255
		h25.166l-54.032-4.308c-1.316-4.102-3.329-7.612-4.728-9.968c2.799-1.126,5.842-2.91,6.549-4.549
		c0.097-0.225,0.146-0.448,0.167-0.669l7.955,12.624l25.93-9.448c2.481-0.231,4.483-0.602,6.44-0.966
		c2.91-0.541,5.659-1.052,9.796-1.052c5.032,0,8.56,1.028,11.971,2.022c1.065,0.31,2.153,0.621,3.279,0.902v15.41h2v-14.966
		c0.771,0.15,1.56,0.282,2.39,0.375c0.493,0.055,0.972,0.08,1.435,0.08c4.046,0,6.971-1.958,9.37-3.563
		c1.26-0.843,2.348-1.571,3.28-1.786c1.418-0.328,2.194-0.051,3.175,0.299c0.977,0.349,2.081,0.744,3.765,0.463
		c1.769-0.295,2.513-1.003,3.17-1.627c0.596-0.567,1.111-1.057,2.626-1.382c0.023-0.005,0.052-0.009,0.076-0.014
		c0.361,0.569,0.755,1.104,1.187,1.602c2.002,2.308,4.757,3.796,8.193,4.483v2.296l-36.502,13.74h5.676l30.826-11.604v11.604h2
		v-15.734c0.856,0.089,1.736,0.149,2.667,0.149c1.299,0,2.516-0.095,3.667-0.264v15.849h2v-16.239
		c7.524-1.917,11.333-8.062,11.333-18.346c0-7.647-3.797-18.184-8.552-24.792c0.126-0.263,0.252-0.518,0.378-0.791
		c3.324-7.254,3.448-13.036,3.559-18.137c0.076-3.559,0.148-6.92,1.238-10.488c1.416-4.634,3.817-7.493,6.139-10.259
		c2.125-2.531,4.132-4.922,5.351-8.457c1.363-3.954,1.032-6.842,0.74-9.391c-0.271-2.363-0.504-4.404,0.501-7.084
		c1.049-2.797,3.039-4.787,5.146-6.894c2.165-2.165,4.403-4.403,5.604-7.606c1.239-3.306,0.983-5.635,0.758-7.689
		c-0.204-1.859-0.397-3.616,0.495-6.07c0.786-2.161,3.662-5.319,6.444-8.374c4.317-4.741,8.396-9.218,8.113-12.797
		c-0.584-7.389-4.758-9.064-8.112-10.41c-1.311-0.526-2.548-1.022-3.51-1.792c-1.505-1.204-1.992-3.459-2.556-6.069
		c-0.663-3.071-1.415-6.552-4.132-9.126c-2.777-2.631-5.886-2.856-8.628-3.054c-2.183-0.158-4.067-0.294-5.327-1.65
		c-1.073-1.156-1.358-3.512-1.66-6.006c-0.512-4.235-1.092-9.035-5.725-10.751c-4.407-1.631-9.606-0.77-14.193-0.01
		c-2.74,0.454-5.334,0.885-7.313,0.702c-2.2-0.2-3.941-1.011-5.957-1.951c-2.771-1.292-5.912-2.756-11.077-3.051
		c-4.615-0.264-7.533,0.603-10.615,1.522C237.937,15.122,234.991,16,230.344,16c-4.798,0-8.098-0.952-11.288-1.873
		c-3.199-0.923-6.507-1.877-11.212-1.877c-5.205,0-8.903,0.619-12.479,1.217c-2.841,0.476-5.524,0.924-8.805,1.034
		c-4.213,0.14-7.849-1.468-11.704-3.17c-2.7-1.192-5.493-2.425-8.56-3.06c-4.29-0.886-8.415-0.196-12.404,0.472
		c-2.971,0.498-5.776,0.967-8.472,0.76c-2.848-0.219-5.11-1.157-7.505-2.149c-2.921-1.211-5.941-2.463-10.289-2.603
		c-4.426-0.147-7.233,1.18-9.713,2.346c-2.006,0.943-3.736,1.76-6.024,1.654c-2.591-0.118-4.625-2.169-6.593-4.153
		C103.461,2.748,101.728,1,99.594,1c-2.121,0-4.401,2.438-5.571,3.892c-3.461,4.301-6.63,11.478-5.406,17.072
		c1.704,7.786,2.479,12.509-1.383,19.026c-3.717,6.272-4.655,13.377-2.868,21.719c1.421,6.629,0.833,12.822-1.964,20.706
		c-2.65,7.468-2.553,17.541,0.247,25.661c2.437,7.068,2.434,10.333-0.02,19.413c-1.84,6.807-0.697,12.436,0.409,17.88
		c0.438,2.154,0.85,4.188,1.062,6.233c0.377,3.646-0.308,5.801-1.102,8.296c-0.718,2.258-1.532,4.816-1.653,8.821
		c-0.033,1.08-0.104,2.467-0.188,4.075c-0.055,1.057-0.114,2.208-0.171,3.43l0.277,0.013c-0.728,1.068-1.51,2.088-2.334,3.047
		c-15.565,0.013-24.045,4.082-25.906,12.398c-2.597-0.076-4.556-0.239-7.563-0.593c-4.667-0.549-5.1-3.559-8.336-35.919
		l-0.105-1.055c1.574-9.47,2.385-16.928-1.327-26.19c0.566-7.402,1.077-30.344-13.894-32.169
		c-9.892-1.207-14.438-0.862-16.223,1.227c-0.896,1.048-1.067,2.479-0.526,4.375c1.54,5.392,6.191,5.392,10.294,5.392
		c1.74,0,9.043,1.133,12.982,6.677c2.867,4.036,3.311,9.473,1.325,16.181c-3-3.333-7.488-4.243-10.967-3.575
		c-2.815,0.541-4.862,2.046-5.684,4.118c-1.151-0.196-2.366,0.125-3.46,0.946c-2.282,1.712-4.15,5.828-3.18,11.165
		c1.342,7.386,6.734,8.082,9.534,8.147c1.792,6.216,8.139,6.643,12.517,6.672c0.218,2.891,0.723,8.039,1.253,13.455
		c0.628,6.402,1.339,13.657,1.683,18.288c0.652,8.798,5.025,13.259,12.997,13.259H53.7c1.267,3.572,3.77,6.295,7.317,7.889
		c2.498,1.121,5.508,1.67,8.765,1.67c4.717,0,9.945-1.165,14.875-3.399c0.468,0.688,0.975,1.283,1.534,1.766
		c0.028,0.024,0.056,0.044,0.084,0.067l0.992,28.26h2.001L88.978,231.054z M154.944,224.206c-0.083-0.006-0.077-0.001-0.029,0.024
		c-0.833-0.418-3.436-3.378-3.361-5.277c0.015-0.392,0.136-0.835,0.917-1.151c1.041-0.423,2.342-0.646,3.764-0.646
		c3.109,0,6.373,1.064,7.759,2.488C163.881,220.881,157.285,224.206,154.944,224.206z M174.76,230.034l-9.082-14.413
		c4.351,0.968,8.653,2.414,12.651,3.752c5.512,1.844,10.73,3.574,15.188,3.826L174.76,230.034z M291.677,204.75
		c0,11.439-4.906,17-15,17c-5.088,0-8.906-1.429-11.35-4.245c-3.166-3.651-4.173-9.688-2.993-17.946
		c1.907-13.351,8.207-23.809,14.343-23.809C282.564,175.75,291.677,193.367,291.677,204.75z M295.861,35.181
		c1.795,1.933,4.262,2.111,6.647,2.284c2.526,0.183,5.139,0.372,7.397,2.512c2.268,2.148,2.92,5.172,3.552,8.096
		c0.617,2.86,1.2,5.561,3.261,7.209c1.193,0.954,2.627,1.53,4.015,2.086c3.279,1.316,6.378,2.56,6.863,8.711
		c0.215,2.715-3.936,7.272-7.598,11.293c-3.047,3.345-5.924,6.504-6.845,9.037c-1.053,2.893-0.824,4.967-0.604,6.973
		c0.222,2.01,0.43,3.908-0.643,6.768c-1.049,2.797-3.039,4.787-5.146,6.894c-2.165,2.165-4.403,4.403-5.604,7.606
		c-1.174,3.131-0.89,5.614-0.615,8.014c0.281,2.452,0.571,4.986-0.644,8.511c-1.099,3.186-2.989,5.438-4.991,7.823
		c-2.451,2.919-4.985,5.938-6.52,10.961c-1.172,3.833-1.246,7.328-1.326,11.029c-0.109,5.11-0.227,10.395-3.313,17.202
		c-2.304-2.72-4.757-4.439-7.071-4.439c-7.227,0-14.244,10.974-16.323,25.525c-0.958,6.711-0.519,12.108,1.299,16.119
		c-1.712,0.457-2.482,1.175-3.104,1.766c-0.555,0.528-0.956,0.909-2.119,1.104c-1.173,0.197-1.909-0.068-2.765-0.374
		c-1.081-0.385-2.305-0.822-4.296-0.364c-1.291,0.298-2.521,1.121-3.943,2.073c-1.903,1.273-4,2.673-6.656,3.096
		c1.633-2.895,3.424-7.661,3.33-12.288c2.941-0.646,4.838-2.18,7.908-4.909c1.811-1.608,3.887-3.838,3.879-6.816
		c-0.009-2.956-2.037-6.112-6.383-9.932c-0.461-0.404-0.891-0.799-1.305-1.188c2.018-4.33,1.997-11.299,0.867-16.043
		c-1.144-4.805-2.327-9.773,4.53-17.61c5.421-6.196,4.999-13.275,4.626-19.522c-0.133-2.23-0.259-4.337-0.131-6.321
		c0.282-4.378,3.101-8.071,5.827-11.643c1.886-2.471,3.668-4.806,4.611-7.321c1.116-2.976,0.375-5.514-0.409-8.202
		c-0.944-3.235-1.921-6.582-0.089-11.554c1.526-4.143,4.457-7.786,7.044-10.999c3.368-4.187,6.277-7.802,5.496-11.551
		c-1.255-6.026-1.826-13.752,4.953-20.064c5.312-4.946,8.936-11.355,10.256-17.865C294.097,31.385,294.492,33.707,295.861,35.181z
		 M44.343,201.083c-6.835,0-10.434-3.731-11.003-11.407c-0.345-4.653-1.058-11.922-1.686-18.334
		c-0.593-6.046-1.153-11.757-1.313-14.321l-0.059-0.938h-0.939c-5.474,0-10.48-0.449-11.663-5.778
		c0.607,0.221,1.249,0.338,1.902,0.338c1.111,0,2.244-0.327,3.267-0.939c1.805,2.509,4.493,4.249,7.111,4.38l0.1-1.998
		c-2.608-0.131-5.445-2.51-6.701-5.529c2.04-0.877,3.73-1.969,4.432-2.847l-1.562-1.25c-1.281,1.602-7.643,4.337-10.933,3.489
		c-1.057-0.273-1.629-0.866-1.8-1.867c-0.178-1.038,0.233-1.989,1.257-2.908c3.202-2.872,11.368-4.258,16.482-2.794l0.55-1.923
		c-2.593-0.741-5.828-0.825-8.938-0.396c0.622-0.777,1.255-1.656,1.71-2.501l-1.761-0.948c-0.846,1.571-2.477,3.366-3.165,4.091
		c-1.729,0.459-3.324,1.078-4.617,1.837c-0.329-1.1-0.476-2.434-0.506-3.007l-1.997,0.106c0.015,0.289,0.15,2.444,0.813,4.139
		c-1.463,1.357-2.089,2.959-1.801,4.644c0.308,1.794,1.439,2.992,3.272,3.466c0.062,0.016,0.132,0.021,0.196,0.035
		c0.269,0.569,0.651,1.076,1.136,1.492c-2.466-0.031-6.704-0.47-7.801-6.508c-0.817-4.497,0.623-7.865,2.413-9.208
		c0.595-0.447,1.508-0.877,2.489-0.386l1.199,0.599l0.233-1.32c0.314-1.781,1.959-3.124,4.4-3.593
		c3.204-0.616,7.734,0.46,10.099,4.279l1.104,1.784l0.69-1.981c2.855-8.193,2.52-14.859-0.999-19.811
		c-4.361-6.138-12.208-7.519-14.613-7.519c-4.508,0-7.321-0.265-8.372-3.941c-0.457-1.599-0.148-2.207,0.124-2.525
		c1.596-1.872,9.016-1.205,14.459-0.541c13.711,1.672,12.505,25.501,12.125,30.261l-0.019,0.237l0.089,0.22
		c3.642,8.94,2.869,15.884,1.274,25.458l-0.022,0.131l0.132,1.32c3.346,33.457,3.695,36.954,10.093,37.706
		c5.629,0.662,7.639,0.674,16.628,0.674c0.862,1.823,1.336,4.1,1.49,6.333H44.343z M17.667,148.068c1.248-0.103,2.56-0.4,3.82-0.811
		c0.102,0.25,0.212,0.496,0.332,0.737c-1.127,0.676-2.426,0.834-3.511,0.418C18.073,148.322,17.861,148.203,17.667,148.068z
		 M61.836,209.146c-2.852-1.281-4.863-3.32-6.007-6.063h7.566c-0.006,0.429-0.021,0.853-0.05,1.263l1.995,0.143
		c0.302-4.229-0.466-10.287-3.624-13.445l-1.414,1.414c0.091,0.092,0.176,0.194,0.263,0.293c-2.241-0.001-4.002-0.006-5.505-0.025
		c1.759-6.688,8.973-10.134,21.963-10.417c-0.429,0.409-0.867,0.802-1.314,1.17c-3.436,2.822-5.209,5.716-5.271,8.6
		c-0.057,2.687,1.37,5.351,4.238,7.918c1.98,1.771,4.646,2.994,7.594,3.47c0.392,1.549,0.856,2.891,1.398,4.034
		C75.884,210.986,67.412,211.652,61.836,209.146z M84.389,203.665c0.207,0.007,0.412,0.026,0.621,0.026
		c3.927,0,8.117-1.33,11.735-4.433l-1.302-1.518c-6.485,5.558-14.974,4.753-19.432,0.764c-2.415-2.16-3.616-4.309-3.573-6.386
		c0.048-2.273,1.576-4.661,4.541-7.097c7.224-5.934,12.085-16.836,12.612-23.948l-1.994-0.148c-0.274,3.701-1.892,8.66-4.458,13.27
		c0.005-0.097,0.01-0.203,0.015-0.298c0.084-1.624,0.156-3.025,0.189-4.117c0.113-3.726,0.849-6.039,1.561-8.276
		c0.825-2.595,1.605-5.046,1.185-9.106c-0.222-2.143-0.644-4.224-1.091-6.427c-1.059-5.216-2.154-10.609-0.438-16.96
		c2.558-9.465,2.555-13.121-0.02-20.587c-2.621-7.599-2.722-17.381-0.253-24.339c2.892-8.148,3.519-14.87,2.036-21.794
		c-1.678-7.827-0.816-14.461,2.632-20.281c4.237-7.149,3.375-12.438,1.617-20.474c-1.035-4.731,1.737-11.323,5.01-15.39
		C97.45,3.824,98.911,3,99.594,3c1.301,0,2.749,1.46,4.283,3.007c2.133,2.151,4.551,4.589,7.922,4.742
		c2.784,0.123,4.813-0.83,6.966-1.843c2.388-1.123,4.862-2.284,8.797-2.157c3.983,0.128,6.832,1.31,9.588,2.452
		c2.435,1.009,4.952,2.052,8.118,2.296c2.938,0.228,5.862-0.263,8.956-0.782c3.808-0.638,7.745-1.297,11.668-0.485
		c2.859,0.591,5.552,1.781,8.158,2.931c3.892,1.718,7.919,3.492,12.578,3.339c3.413-0.114,6.16-0.573,9.068-1.06
		c3.495-0.585,7.109-1.189,12.148-1.189c4.423,0,7.451,0.874,10.657,1.799c3.324,0.959,6.763,1.951,11.843,1.951
		c4.938,0,8.026-0.92,11.013-1.81c2.908-0.867,5.652-1.684,9.931-1.441c4.781,0.273,7.737,1.651,10.346,2.867
		c2.095,0.977,4.072,1.898,6.62,2.13c2.247,0.204,4.953-0.246,7.822-0.721c4.343-0.72,9.267-1.534,13.171-0.088
		c2.074,0.769,3.082,2.488,3.658,4.562h-0.561c0,7.695-3.806,15.833-10.182,21.768c-7.511,6.993-6.91,15.396-5.547,21.936
		c0.588,2.823-2.047,6.098-5.098,9.889c-2.683,3.333-5.723,7.111-7.362,11.562c-2.06,5.591-0.893,9.591,0.046,12.806
		c0.718,2.461,1.339,4.586,0.456,6.939c-0.839,2.238-2.534,4.459-4.328,6.81c-2.771,3.63-5.912,7.745-6.233,12.727
		c-0.136,2.108-0.007,4.275,0.131,6.569c0.366,6.149,0.746,12.508-4.136,18.087c-7.536,8.612-6.173,14.338-4.97,19.39
		c1.004,4.219,1.035,10.231-0.448,14.069c-5.338-5.574-6.037-9.948-7.342-18.207l-1.975,0.312
		c1.486,9.418,2.306,14.606,10.827,22.095c3.831,3.367,5.696,6.126,5.703,8.436c0.005,1.7-0.984,3.34-3.207,5.316
		c-4.362,3.877-5.893,4.977-12.048,4.748c-5.904-0.228-8.628-3.706-8.738-3.851l-1.6,1.199c0.134,0.18,3.365,4.385,10.262,4.649
		c0.532,0.021,1.034,0.031,1.511,0.031c0.738,0,1.412-0.026,2.038-0.078c0.016,4.771-2.193,9.802-3.729,12.072
		c-0.143-0.011-0.276-0.002-0.422-0.019c-2.672-0.297-4.935-0.956-7.33-1.654c-3.546-1.033-7.213-2.102-12.53-2.102
		c-4.321,0-7.158,0.527-10.161,1.086c-1.848,0.344-3.742,0.691-6.053,0.917l-0.039-0.108l-0.415,0.151
		c-1.423,0.125-3.001,0.204-4.832,0.204c-4.354,0-9.831-1.833-15.63-3.773c-7.166-2.398-15.278-5.101-23.138-4.977
		c-7.52,0.135-9.622,0.842-11.655,1.525c-1.698,0.57-3.301,1.109-8.599,1.225c-5.799,0.117-9.211-1.394-12.835-3.002
		c-3.462-1.537-7.043-3.127-12.83-3.496c-5.128-0.324-8.882,0.875-11.897,1.84c-4.057,1.298-6.736,2.156-10.513-1.1
		C86.206,208.379,85.163,206.419,84.389,203.665z M149.506,214.861l-9.967,7.906l-8.884-5.836c1.48,0.231,3.111,0.355,4.961,0.318
		c5.603-0.122,7.347-0.708,9.193-1.329C145.958,215.534,147.139,215.141,149.506,214.861z M88.328,212.528
		c3.652,2.08,6.771,1.095,10.292-0.031c3.003-0.962,6.407-2.054,11.161-1.749c5.43,0.347,8.844,1.862,12.146,3.328
		c0.732,0.324,1.47,0.65,2.229,0.964l-0.007,0.011l15.5,10.182l13.42-10.645c0.836-0.039,1.754-0.069,2.793-0.088
		c2.341-0.05,4.727,0.178,7.114,0.586l1.527,2.424c-1.97-1.434-5.105-2.354-8.27-2.354c-1.677,0-3.239,0.274-4.517,0.793
		c-1.342,0.546-2.11,1.585-2.162,2.928c-0.082,2.095,1.587,4.539,3.026,5.989c-0.797,1.425-2.505,4.782-3.506,8.974l-60.168-4.798
		L88.328,212.528z"/>
	<path fill="#F6F6F6" d="M145.132,159.865c0.262-0.334,6.418-8.271,7.448-14.451l-1.973-0.328
		c-0.946,5.676-6.991,13.471-7.052,13.549L145.132,159.865z"/>
	<path fill="#F6F6F6" d="M102.852,178.281c1.214-1.476,2.36-2.87,4.906-3.295c3.812-0.635,5.641-1.854,7.41-3.034
		c0.867-0.578,1.704-1.13,2.77-1.608c-1.622,2.207-4.345,6.299-4.345,8.906c0,4.063,3.59,11.687,17.047,14.479
		c5.89,1.222,10.832,1.835,14.859,1.835c6.509,0,10.625-1.603,12.462-4.818c0.859-1.503,1.515-3.111,2.15-4.666
		c1.655-4.056,3.085-7.559,7.516-8.871l-0.568-1.918c-5.352,1.586-7.104,5.88-8.799,10.033c-0.61,1.495-1.241,3.041-2.035,4.43
		c-2.455,4.295-10.926,4.975-25.179,2.017c-12.223-2.536-15.453-9.299-15.453-12.521c0-2.373,3.629-7.39,5.028-9.122l-0.596-0.481
		c3.393-0.712,7.81,0.343,11.688,2.788c-1.292,0.199-2.354,0.431-3.264,0.63c-0.969,0.213-1.735,0.38-2.439,0.439l0.166,1.992
		c0.836-0.069,1.701-0.259,2.701-0.478c2.411-0.528,5.915-1.293,12.227-0.962l-0.026,0.032c0.439,0.358,1.018,1.188,1.63,2.067
		c1.497,2.15,3.359,4.825,5.982,4.825c3.489,0,4.599-5.662,5.027-7.991c0.71-0.279,1.384-0.578,2.05-0.876
		c2.603-1.162,5.294-2.364,10.326-2.364c5.883,0,10.898,2.504,15.323,4.713c3.644,1.819,7.085,3.537,10.427,3.537
		c2.965,0,5.165-0.721,7.105-1.357c2.759-0.904,4.937-1.617,8.476,0.016c3.796,1.752,7.304,4.98,10.123,7.574
		c1.978,1.82,3.54,3.258,4.849,3.912c2.893,1.446,7.207,3.483,9.054,4.274c0.411,0.177,0.958,0.353,1.59,0.557
		c2.119,0.684,5.321,1.717,6.131,3.659l1.846-0.77c-1.163-2.793-4.894-3.996-7.362-4.793c-0.585-0.188-1.09-0.352-1.417-0.491
		c-1.639-0.703-5.813-2.659-8.946-4.226c-1.056-0.528-2.601-1.949-4.389-3.595c-2.922-2.689-6.559-6.035-10.64-7.919
		c-4.253-1.961-7.013-1.058-9.936-0.1c-1.887,0.618-3.838,1.258-6.483,1.258c-2.87,0-5.958-1.542-9.533-3.326
		c-4.623-2.308-9.862-4.924-16.217-4.924c-5.458,0-8.478,1.349-11.142,2.538c-2.841,1.268-5.525,2.467-11.018,1.966
		c-4.339-0.395-7.58-0.326-10.098-0.083l0.351-0.476c-5.162-3.804-11.412-5.23-15.926-3.639c-1.818,0.642-3.03,1.45-4.202,2.231
		c-1.667,1.111-3.241,2.161-6.63,2.726c-3.285,0.548-4.792,2.381-6.122,3.998c-1.323,1.608-2.368,2.879-5.005,2.989
		c-6.388,0.266-13.688,9.489-13.996,9.882l1.574,1.234c1.938-2.472,7.96-8.929,12.504-9.118
		C99.917,181.852,101.476,179.955,102.852,178.281z M151.526,173.723c-0.994,4.531-2.184,5.259-2.836,5.259
		c-1.579,0-3.11-2.2-4.341-3.968c-0.185-0.265-0.363-0.521-0.537-0.764C147.125,174.545,149.536,174.26,151.526,173.723z"/>
	<path fill="#F6F6F6" d="M180.094,103.25c9.925,0,18-8.187,18-18.25s-8.075-18.25-18-18.25s-18,8.187-18,18.25
		S170.169,103.25,180.094,103.25z M180.094,68.75c8.822,0,16,7.29,16,16.25s-7.178,16.25-16,16.25s-16-7.29-16-16.25
		S171.271,68.75,180.094,68.75z"/>
	<path fill="#F6F6F6" d="M132.094,65.25c-8.96,0-16.25,6.953-16.25,15.5s7.29,15.5,16.25,15.5s16.25-6.953,16.25-15.5
		S141.054,65.25,132.094,65.25z M132.094,94.25c-7.857,0-14.25-6.056-14.25-13.5s6.393-13.5,14.25-13.5s14.25,6.056,14.25,13.5
		S139.951,94.25,132.094,94.25z"/>
</g>
</svg>
